<?xml version="1.0" encoding="utf-8"?>
<!-- Generator: Adobe Illustrator 24.1.2, SVG Export Plug-In . SVG Version: 6.00 Build 0)  -->
<svg version="1.1" xmlns="http://www.w3.org/2000/svg" xmlns:xlink="http://www.w3.org/1999/xlink" x="0px" y="0px"
	 viewBox="0 0 400.87 398.16" style="enable-background:new 0 0 400.87 398.16;" xml:space="preserve">
<style type="text/css">
	.st0{fill:url(#SVGID_1_);}
	.st1{fill:none;stroke:#18223B;stroke-width:4;stroke-linecap:round;stroke-miterlimit:10;}
	.st2{fill:none;stroke:#18223B;stroke-width:3;stroke-linecap:round;stroke-miterlimit:10;}
	.st3{fill:#18223B;}
</style>
<g id="Calque_2">
	<radialGradient id="SVGID_1_" cx="201.7903" cy="199.0806" r="199.0806" gradientUnits="userSpaceOnUse">
		<stop  offset="0" style="stop-color:#FFFFFF"/>
		<stop  offset="1" style="stop-color:#FCF4AB"/>
	</radialGradient>
	<circle class="st0" cx="201.79" cy="199.08" r="199.08"/>
</g>
<g id="Calque_1">
	<path class="st1" d="M84.34,171.59c-0.08,0.86-11.21,105.39,81.78,100.89c57.23,2.8,198.54-41.94,160.72-92.07
		c-9.19-12.18-39.5-62.03-60.42-30.23c0,0-36.39-15.38-34.84,28.49"/>
	<path class="st2" d="M250.25,222.04c0,0-18.92-30.06-57.36-38.22c0,0,27.29-44.33,17.1-59.62"/>
	<path class="st2" d="M218.15,226.63c0,0-101.91-18.85-17.83-102.42c0,0-9.17-12.23,3.06-23.44"/>
	<g>
		<g>
			<path class="st3" d="M142.1,229.99c2.43,1.92,3.8,4.09,4.14,6.49c0.33,2.4-0.43,4.77-2.29,7.11c-0.98,1.24-2.17,2.2-3.54,2.87
				s-2.85,0.94-4.41,0.81c-1.56-0.13-3.12-0.74-4.66-1.82l0.47-1.04c1.07,0.85,2,1.83,2.78,2.94c0.78,1.12,1.33,2.33,1.62,3.65
				c0.3,1.32,0.29,2.67,0,4.05c-0.3,1.39-1.01,2.79-2.13,4.2c-1.19,1.5-2.47,2.59-3.83,3.28c-1.36,0.68-2.75,1.02-4.15,1.01
				c-1.4-0.01-2.77-0.29-4.09-0.84c-1.32-0.56-2.58-1.3-3.76-2.24l-11.66-9.24c-0.38-0.3-0.58-0.67-0.62-1.13
				c-0.04-0.45,0.08-0.85,0.35-1.2l21.98-27.73c0.27-0.35,0.64-0.55,1.09-0.62c0.45-0.07,0.87,0.05,1.24,0.35L142.1,229.99z
				 M129.35,245.99l-10.18-8.07l0.46-0.13l-9.86,12.44l0.05-0.6l10.27,8.14c1.88,1.49,3.81,2.25,5.8,2.3
				c1.99,0.05,3.79-0.96,5.42-3.01c1.14-1.44,1.76-2.84,1.84-4.19c0.08-1.35-0.24-2.6-0.97-3.76
				C131.45,247.94,130.51,246.9,129.35,245.99z M139.65,232.28l-10.14-8.04l1.17-0.41l-9.72,12.26l0.04-1.03l10.14,8.04
				c1.52,1.16,3.18,1.67,4.96,1.53c1.78-0.14,3.42-1.15,4.9-3.03c1.24-1.56,1.75-3.17,1.53-4.82
				C142.31,235.13,141.35,233.63,139.65,232.28z"/>
			<path class="st3" d="M177.08,258.48c0.02,2.8-0.59,5.32-1.81,7.56c-1.22,2.24-2.88,4-4.97,5.28c-2.09,1.28-4.47,1.93-7.12,1.95
				c-2.62,0.02-4.99-0.61-7.12-1.87c-2.13-1.26-3.81-3-5.06-5.22c-1.25-2.22-1.88-4.73-1.9-7.54c-0.02-2.84,0.59-5.37,1.81-7.58
				c1.22-2.22,2.89-3.98,5-5.28c2.11-1.3,4.48-1.96,7.09-1.98c2.65-0.02,5.04,0.62,7.14,1.89c2.11,1.28,3.79,3.02,5.03,5.22
				C176.44,253.12,177.07,255.64,177.08,258.48z M173.71,258.5c-0.01-2.25-0.49-4.24-1.42-5.99c-0.93-1.74-2.2-3.11-3.81-4.1
				c-1.61-0.99-3.43-1.47-5.45-1.46c-2.03,0.01-3.84,0.52-5.44,1.52c-1.6,1-2.86,2.39-3.79,4.14c-0.93,1.76-1.39,3.76-1.37,6.01
				c0.01,2.25,0.49,4.24,1.44,5.96c0.95,1.73,2.23,3.09,3.84,4.1c1.61,1,3.43,1.5,5.45,1.49c2.03-0.01,3.84-0.53,5.44-1.55
				c1.6-1.02,2.85-2.4,3.76-4.14C173.28,262.74,173.73,260.75,173.71,258.5z"/>
			<path class="st3" d="M196.22,240.14c2.41-0.36,4.4-0.16,5.98,0.59c1.58,0.75,2.82,1.91,3.7,3.47c0.88,1.56,1.48,3.35,1.78,5.35
				l2.39,16.08c0.07,0.44-0.04,0.84-0.32,1.22c-0.28,0.38-0.64,0.6-1.08,0.66c-0.51,0.08-0.95-0.03-1.3-0.31
				c-0.36-0.28-0.57-0.64-0.64-1.08l-2.37-15.91c-0.22-1.46-0.65-2.75-1.31-3.89c-0.65-1.13-1.56-1.98-2.72-2.53
				c-1.16-0.55-2.62-0.7-4.37-0.44c-1.57,0.23-3,0.81-4.3,1.73c-1.3,0.92-2.29,2.05-2.99,3.38c-0.7,1.33-0.94,2.73-0.72,4.19
				l2.37,15.91c0.06,0.44-0.04,0.84-0.32,1.22s-0.64,0.6-1.08,0.66c-0.51,0.08-0.95-0.03-1.3-0.31c-0.36-0.28-0.57-0.64-0.64-1.08
				l-3.65-24.5c-0.07-0.44,0.04-0.84,0.32-1.22s0.66-0.6,1.13-0.67c0.47-0.07,0.89,0.04,1.25,0.32c0.36,0.28,0.57,0.64,0.64,1.08
				l0.68,4.59l-0.96,2.16c-0.1-1.18,0.11-2.35,0.62-3.53c0.51-1.18,1.24-2.27,2.17-3.29c0.93-1.01,2-1.86,3.23-2.55
				C193.64,240.77,194.91,240.33,196.22,240.14z"/>
			<path class="st3" d="M226.92,234.85c2.27-0.5,4.21-0.42,5.83,0.24s2.94,1.75,3.97,3.26c1.03,1.51,1.77,3.27,2.21,5.29l3.37,15.28
				c0.1,0.43,0.02,0.85-0.24,1.24c-0.25,0.4-0.59,0.64-1.03,0.74c-0.5,0.11-0.95,0.04-1.32-0.22c-0.38-0.26-0.61-0.6-0.71-1.03
				l-3.37-15.28c-0.33-1.48-0.84-2.75-1.55-3.82c-0.71-1.07-1.64-1.86-2.79-2.36c-1.15-0.5-2.57-0.57-4.26-0.19
				c-1.51,0.33-2.86,1.01-4.05,2.03c-1.19,1.02-2.07,2.2-2.64,3.55c-0.57,1.35-0.69,2.77-0.37,4.24l3.37,15.28
				c0.1,0.43,0.02,0.85-0.24,1.24c-0.25,0.4-0.59,0.64-1.03,0.74c-0.5,0.11-0.95,0.04-1.32-0.22c-0.38-0.26-0.61-0.6-0.71-1.03
				l-8.1-36.71c-0.1-0.43-0.02-0.85,0.24-1.24s0.61-0.64,1.08-0.75c0.47-0.1,0.89-0.03,1.27,0.23c0.38,0.26,0.61,0.6,0.71,1.03
				l3.86,17.49l-0.82,2.16c-0.17-1.13-0.06-2.3,0.33-3.5c0.4-1.2,1-2.33,1.83-3.4c0.82-1.07,1.79-1.98,2.91-2.74
				C224.47,235.65,225.66,235.13,226.92,234.85z"/>
			<path class="st3" d="M265.43,254.37c-2.73,0.89-5.31,1.09-7.74,0.6c-2.43-0.49-4.55-1.58-6.38-3.27
				c-1.83-1.69-3.19-3.92-4.1-6.69c-0.97-2.98-1.21-5.71-0.72-8.2c0.49-2.48,1.49-4.6,2.99-6.35c1.5-1.75,3.31-2.97,5.41-3.65
				c1.54-0.5,3.13-0.72,4.76-0.65c1.63,0.07,3.18,0.46,4.65,1.16c1.47,0.71,2.81,1.71,4.01,3.03c1.2,1.31,2.15,2.98,2.85,5
				c0.14,0.42,0.1,0.83-0.12,1.23c-0.22,0.4-0.54,0.67-0.96,0.81L249,244.26l-1.55-2.63l20.66-6.72l-0.48,0.85l-0.34-1.05
				c-0.68-1.6-1.66-2.82-2.94-3.67c-1.28-0.84-2.66-1.36-4.14-1.56c-1.48-0.2-2.92-0.07-4.32,0.39c-1.05,0.34-2.06,0.9-3.03,1.68
				c-0.97,0.78-1.75,1.76-2.36,2.95s-0.96,2.56-1.07,4.13c-0.11,1.57,0.14,3.3,0.76,5.19c0.67,2.07,1.7,3.81,3.09,5.21
				s3.03,2.35,4.93,2.81c1.9,0.47,3.97,0.34,6.21-0.39c1.19-0.39,2.22-0.92,3.09-1.59c0.87-0.67,1.58-1.42,2.15-2.24
				c0.56-0.82,0.99-1.63,1.28-2.42c0.25-0.43,0.56-0.71,0.95-0.83c0.39-0.13,0.76-0.09,1.11,0.1c0.35,0.2,0.59,0.47,0.7,0.82
				c0.14,0.42,0.08,0.85-0.17,1.28c-0.64,1.6-1.65,3.14-3.03,4.62S267.43,253.72,265.43,254.37z"/>
			<path class="st3" d="M291.68,211.3c0.42-0.23,0.85-0.27,1.28-0.13c0.43,0.14,0.76,0.41,0.97,0.79l7.46,13.69
				c1.75,3.2,2.17,6.14,1.28,8.81c-0.9,2.67-2.88,4.84-5.95,6.52s-5.97,2.16-8.68,1.46c-2.71-0.7-4.94-2.66-6.69-5.86l-7.46-13.69
				c-0.21-0.39-0.25-0.81-0.12-1.26c0.13-0.45,0.41-0.79,0.83-1.02c0.42-0.23,0.85-0.27,1.28-0.13c0.43,0.14,0.76,0.41,0.97,0.79
				l7.46,13.69c1.27,2.33,2.86,3.76,4.77,4.3c1.91,0.53,3.96,0.2,6.16-1c2.23-1.22,3.64-2.77,4.23-4.66c0.58-1.89,0.24-4-1.03-6.33
				l-7.46-13.69c-0.21-0.39-0.26-0.8-0.14-1.24C290.94,211.9,291.22,211.55,291.68,211.3z"/>
			<path class="st3" d="M323.66,218.93c-0.26,0.44-0.62,0.72-1.06,0.81c-0.45,0.1-0.86,0.04-1.24-0.19l-21.28-12.67
				c-0.38-0.23-0.63-0.57-0.74-1.02c-0.12-0.46-0.05-0.89,0.19-1.3c0.25-0.41,0.59-0.67,1.04-0.77c0.45-0.1,0.86-0.04,1.24,0.19
				l7.13,4.24l-0.28,0.8c-1.05-0.75-1.99-1.69-2.81-2.8c-0.82-1.11-1.45-2.33-1.9-3.67c-0.45-1.34-0.63-2.72-0.55-4.16
				s0.53-2.83,1.34-4.19c0.34-0.57,0.79-1.05,1.35-1.45c0.56-0.4,1.11-0.44,1.64-0.11c0.48,0.28,0.76,0.63,0.87,1.03
				c0.1,0.4,0.05,0.78-0.16,1.13c-0.17,0.29-0.43,0.55-0.79,0.78c-0.36,0.24-0.7,0.63-1.02,1.17c-0.53,0.89-0.79,1.93-0.8,3.13
				c-0.01,1.2,0.22,2.43,0.67,3.68c0.45,1.26,1.1,2.42,1.94,3.5s1.81,1.95,2.92,2.61l11.73,6.99c0.38,0.23,0.63,0.57,0.74,1.02
				C323.94,218.13,323.88,218.55,323.66,218.93z"/>
		</g>
	</g>
	<g>
		<path class="st3" d="M76.87,131.18c1.93-1.08,3.88-1.6,5.85-1.56c1.97,0.04,3.83,0.6,5.56,1.66c1.73,1.06,3.17,2.61,4.31,4.64
			c1.1,1.96,1.68,3.99,1.72,6.07c0.04,2.08-0.42,4.01-1.37,5.77c-0.96,1.76-2.4,3.19-4.33,4.27l-10.94,6.16l0-0.61l8.71,13.28
			c0.23,0.41-0.41,3.27-0.54,3.75c-0.13,0.48-0.44-0.64-0.85-0.41c-0.48,0.27-0.95,0.33-1.4,0.17c-0.45-0.15-0.79-0.44-1.02-0.85
			l-18.6-33.04c-0.23-0.41-0.29-0.86-0.17-1.33c0.12-0.47,0.4-0.84,0.85-1.09L76.87,131.18z M86.92,149.04
			c1.34-0.75,2.32-1.75,2.94-2.98c0.62-1.23,0.89-2.58,0.81-4.06c-0.08-1.47-0.51-2.9-1.28-4.27c-0.81-1.44-1.81-2.55-2.99-3.31
			c-1.18-0.76-2.44-1.17-3.79-1.23c-1.35-0.06-2.69,0.29-4.03,1.05l-10.94,6.16l0.03-0.56l8.75,15.54l-0.48-0.14L86.92,149.04z"/>
		<path class="st3" d="M122.33,128.54c0.49-0.16,0.95-0.13,1.38,0.1c0.43,0.23,0.72,0.57,0.87,1.02l5.27,15.85
			c1.23,3.71,1.13,6.89-0.32,9.53c-1.45,2.65-3.96,4.56-7.51,5.75c-3.56,1.18-6.7,1.15-9.43-0.11c-2.73-1.26-4.71-3.74-5.94-7.45
			l-5.27-15.85c-0.15-0.45-0.11-0.9,0.11-1.35c0.23-0.45,0.58-0.75,1.07-0.92c0.49-0.16,0.95-0.13,1.38,0.1
			c0.43,0.23,0.72,0.57,0.87,1.02l5.27,15.85c0.9,2.7,2.3,4.51,4.21,5.44c1.91,0.93,4.14,0.96,6.69,0.12
			c2.59-0.86,4.37-2.23,5.34-4.12c0.98-1.88,1.01-4.18,0.12-6.87l-5.27-15.85c-0.15-0.45-0.12-0.9,0.08-1.34
			C121.44,129.02,121.81,128.72,122.33,128.54z"/>
		<path class="st3" d="M153.46,148.63c-2.82,1.25-5.54,1.75-8.18,1.49c-2.64-0.25-5.03-1.18-7.17-2.78c-2.14-1.6-3.84-3.83-5.1-6.68
			c-1.36-3.07-1.92-5.95-1.67-8.66c0.25-2.7,1.08-5.07,2.49-7.1c1.41-2.03,3.2-3.53,5.36-4.49c1.59-0.71,3.25-1.11,5-1.22
			c1.75-0.1,3.44,0.14,5.08,0.72c1.64,0.59,3.18,1.52,4.61,2.78c1.43,1.27,2.62,2.94,3.59,5.02c0.19,0.43,0.19,0.88,0.01,1.33
			c-0.19,0.45-0.5,0.77-0.93,0.96l-21.71,9.64l-1.95-2.63l21.28-9.45l-0.42,0.96l-0.48-1.08c-0.9-1.63-2.08-2.83-3.54-3.58
			c-1.46-0.75-2.99-1.16-4.58-1.2c-1.6-0.05-3.12,0.25-4.56,0.89c-1.08,0.48-2.1,1.19-3.04,2.13c-0.94,0.94-1.67,2.07-2.19,3.4
			c-0.51,1.33-0.74,2.84-0.68,4.52c0.06,1.68,0.52,3.5,1.38,5.45c0.95,2.13,2.24,3.87,3.87,5.22c1.64,1.35,3.49,2.17,5.56,2.46
			c2.07,0.29,4.26-0.08,6.57-1.1c1.23-0.54,2.27-1.22,3.12-2.03s1.53-1.69,2.04-2.62c0.51-0.94,0.88-1.85,1.09-2.72
			c0.22-0.48,0.52-0.82,0.92-0.99c0.4-0.18,0.79-0.18,1.19-0.01c0.4,0.17,0.68,0.43,0.84,0.79c0.19,0.43,0.18,0.89-0.04,1.38
			c-0.51,1.78-1.41,3.53-2.72,5.26C157.2,146.4,155.52,147.72,153.46,148.63z M138.03,119.12c-0.22,0.1-0.46,0.08-0.73-0.03
			c-0.27-0.12-0.46-0.3-0.57-0.56c-0.1-0.22-0.12-0.51-0.07-0.88l1.02-6.61c0.05-0.37,0.17-0.74,0.34-1.12
			c0.18-0.38,0.48-0.67,0.91-0.86c0.58-0.26,1.09-0.31,1.55-0.17c0.45,0.15,0.78,0.5,0.99,1.05c0.11,0.25,0.17,0.5,0.17,0.74
			c0,0.24-0.05,0.49-0.15,0.75l-2.16,6.08c-0.1,0.35-0.27,0.67-0.48,0.96C138.63,118.76,138.36,118.98,138.03,119.12z"/>
		<path class="st3" d="M171.06,139.45c-0.48,0.27-0.96,0.33-1.42,0.19c-0.47-0.15-0.82-0.43-1.05-0.84l-12.96-23.16
			c-0.23-0.41-0.28-0.86-0.14-1.35c0.14-0.48,0.43-0.85,0.88-1.1c0.45-0.25,0.9-0.3,1.37-0.16c0.47,0.15,0.82,0.43,1.05,0.84
			l4.34,7.75l-0.69,0.59c-0.57-1.26-0.94-2.63-1.11-4.1c-0.17-1.47-0.1-2.94,0.2-4.42c0.3-1.48,0.87-2.87,1.71-4.15
			c0.84-1.29,2-2.34,3.48-3.17c0.62-0.35,1.3-0.55,2.03-0.62c0.73-0.07,1.26,0.19,1.59,0.77c0.29,0.52,0.37,0.99,0.25,1.42
			c-0.12,0.43-0.37,0.75-0.75,0.96c-0.31,0.17-0.69,0.28-1.15,0.31c-0.46,0.03-0.98,0.21-1.57,0.54c-0.97,0.54-1.77,1.36-2.42,2.47
			c-0.65,1.11-1.1,2.37-1.35,3.78c-0.25,1.41-0.28,2.84-0.08,4.29c0.2,1.45,0.64,2.78,1.31,3.98l7.15,12.77
			c0.23,0.41,0.28,0.86,0.14,1.35C171.75,138.86,171.48,139.22,171.06,139.45z"/>
		<path class="st3" d="M169.38,99.96c-0.68,0.48-1.29,0.69-1.85,0.62c-0.56-0.06-1.04-0.39-1.45-0.97l-0.34-0.48
			c-0.41-0.58-0.54-1.15-0.39-1.72c0.15-0.57,0.55-1.08,1.19-1.54c0.61-0.43,1.19-0.62,1.75-0.55c0.55,0.07,1.04,0.39,1.45,0.97
			l0.34,0.48c0.41,0.58,0.56,1.14,0.44,1.69C170.4,99,170.02,99.5,169.38,99.96z M189.95,125.81c0.28,0.39,0.37,0.83,0.29,1.32
			c-0.08,0.5-0.32,0.88-0.7,1.16c-0.45,0.32-0.91,0.43-1.37,0.32c-0.46-0.11-0.83-0.35-1.11-0.74l-15.8-22.2
			c-0.28-0.39-0.38-0.82-0.31-1.31c0.07-0.48,0.31-0.88,0.73-1.17s0.87-0.4,1.35-0.3c0.48,0.09,0.86,0.34,1.13,0.72L189.95,125.81z"
			/>
	</g>
</g>
</svg>
